inDegrees=yes
name=ik_S50_A04_T01
DataType=double
version=3
OpenSimVersion=4.3-2021-08-27-4bc7ad9
endheader
time	pelvis_tilt	pelvis_list	pelvis_rotation	pelvis_tx	pelvis_ty	pelvis_tz	hip_flexion_r	hip_adduction_r	hip_rotation_r	knee_angle_r	knee_angle_r_beta	ankle_angle_r	subtalar_angle_r	mtp_angle_r	hip_flexion_l	hip_adduction_l	hip_rotation_l	knee_angle_l	knee_angle_l_beta	ankle_angle_l	subtalar_angle_l	mtp_angle_l	lumbar_extension	lumbar_bending	lumbar_rotation	arm_flex_r	arm_add_r	arm_rot_r	elbow_flex_r	pro_sup_r	wrist_flex_r	wrist_dev_r	arm_flex_l	arm_add_l	arm_rot_l	elbow_flex_l	pro_sup_l	wrist_flex_l	wrist_dev_l
0	0	0	0	0	0.9399999999999999	0	0	0	0	0	0	0	0	0	0	0	0	0	0	0	0	0	0	0	0	0	0	0	0	89.99999999963507	0	0	0	0	0	0	89.99999999869995	0	0
0.02	12.65157450922046	9.751207962070561	27.52763972470586	0	0.9399999999999999	0	57.21968733944447	-3.642299162483526	-7.634862674981079	78.48469143231242	1.369816277905636	0	0	0	61.40858873590741	-2.356015089489646	-23.37517572784092	81.84955477006385	1.428544222029044	0	0	0	0	0	0	3.968026050031951	-3.968026050031952	0.7321440454321462	21.92880352509509	89.26785599749063	0	0	3.968026050031951	-3.968026050031952	0.7321440454321462	21.92880352509509	89.26785599669289	0	0
0.04	12.67173060254934	9.747715165864426	27.51929288485686	0	0.9399999999999999	0	57.20922151185407	-3.644460321110804	-7.641071492556444	78.49120040123044	1.369929880844166	0	0	0	61.38625741834738	-2.350617706656859	-23.36610215745873	81.80088409438596	1.427694758489295	0	0	0	0	0	0	4.88413065032863	-4.884130650328632	0.9004801102609901	25.30371001387395	89.09951994255951	0	0	4.88413065032863	-4.884130650328632	0.9004801102609901	25.30371001387395	89.09951994179325	0	0
0.06	12.66794343149332	9.719168296656175	27.52929789073156	0	0.9399999999999999	0	57.22382054664095	-3.638865767785751	-7.664738377057087	78.50275013568385	1.370131461738109	0	0	0	61.40632910084162	-2.36248440839589	-23.33932419205249	81.84067783915668	1.428389290357242	0	0	0	0	0	0	5.129999264839681	-5.129999264839683	0.9451494538797307	26.12750513598771	89.05485060155939	0	0	5.129999264839681	-5.129999264839683	0.9451494538797307	26.12750513598771	89.05485060080169	0	0
0.08	12.64753062088868	9.717256241455996	27.53413486584593	0	0.9399999999999999	0	57.23576449152955	-3.635464745051822	-7.666976462007686	78.4875538551475	1.369866236608692	0	0	0	61.42816292614502	-2.350490026046167	-23.35518639828521	81.82003754502068	1.428029049265989	0	0	0	0	0	0	5.641680409917214	-5.641680409917215	1.038895576488701	28.05532843410707	88.96110448446095	0	0	5.641680409917214	-5.641680409917215	1.038895576488701	28.05532843410707	88.96110448372058	0	0
0.1	12.63354473981638	9.72754314396831	27.53654310989934	0	0.9399999999999999	0	57.24234668855043	-3.644777233726872	-7.645627852697426	78.46572975231352	1.369485334157946	0	0	0	61.42678933503672	-2.350696944269011	-23.37650658674934	81.80672854222186	1.427796763346993	0	0	0	0	0	0	5.851479547807223	-5.851479547807225	1.0766870077351	28.74603022985211	88.92331305542552	0	0	5.851479547807223	-5.851479547807225	1.0766870077351	28.74603022985211	88.9233130546922	0	0
0.12	12.67235761777295	9.741754932309936	27.54542763486636	0	0.9399999999999999	0	57.17183279389543	-3.655357017047719	-7.64861706868798	78.36216294634322	1.36767775239799	0	0	0	61.36273186684716	-2.344121284394878	-23.35570412957513	81.68486219006297	1.425669794254425	0	0	0	0	0	0	6.091079771203962	-6.091079771203963	1.119780914207543	29.53926642367825	88.88021915147351	0	0	6.091079771203962	-6.091079771203963	1.119780914207543	29.53926642367825	88.88021915074826	0	0
0.14	12.65911559843517	9.741080882412206	27.54259388950311	0	0.9399999999999999	0	57.22289401912138	-3.657604022006112	-7.64242823170277	78.5073826500754	1.370212314366887	0	0	0	61.40319499240757	-2.34399136749281	-23.37463368910768	81.82718327175974	1.428153765725033	0	0	0	0	0	0	6.782474620879512	-6.782474620879515	1.245434612268142	32.10775467800282	88.75456546078649	0	0	6.782474620879512	-6.782474620879515	1.245434612268142	32.10775467800282	88.75456546008456	0	0
0.16	12.66678629097497	9.732411207751744	27.53951668955029	0	0.9399999999999999	0	57.22117958880249	-3.64115070169442	-7.628823808737765	78.49410407470326	1.369980559506669	0	0	0	61.40485208588412	-2.342629915733508	-23.35680841967436	81.84545041100418	1.428472587449769	0	0	0	0	0	0	6.943623339571185	-6.943623339571189	1.273935131579412	32.60791799599158	88.7260649431354	0	0	6.943623339571185	-6.943623339571189	1.273935131579412	32.60791799599158	88.72606494243878	0	0
0.18	12.63923365725435	9.73862408693982	27.54459340457293	0	0.9399999999999999	0	57.21752008354047	-3.658442856142693	-7.629909343034335	78.41893166445364	1.368668553441153	0	0	0	61.41562059873514	-2.332631231430157	-23.39038810197108	81.76841796002655	1.427128117549328	0	0	0	0	0	0	7.123392009457804	-7.123392009457809	1.305697422002736	33.17254368608424	88.69430265456209	0	0	7.123392009457804	-7.123392009457809	1.305697422002736	33.17254368608424	88.69430265387139	0	0
0.2	12.65006496402271	9.737215971588448	27.56817813724398	0	0.9399999999999999	0	57.21324514444505	-3.665907860209114	-7.646023911044841	78.42103183760383	1.368705208377486	0	0	0	61.41461881592384	-2.326586770196738	-23.37442521125922	81.76570510367219	1.427080769273811	0	0	0	0	0	0	7.255227328945116	-7.255227328945119	1.328984484367458	33.58307282442218	88.67101559355348	0	0	7.255227328945116	-7.255227328945119	1.328984484367458	33.58307282442218	88.67101559286711	0	0
0.22	12.69713222178418	9.708713723656253	27.54956280829696	0	0.9399999999999999	0	57.15792790209559	-3.637767822913206	-7.690273480347215	78.32387743033836	1.36700954408788	0	0	0	61.35237809502447	-2.353203331328334	-23.33248330455614	81.64493506576348	1.424972934474546	0	0	0	0	0	0	7.42258044966828	-7.422580449668283	1.358531386519052	34.11112708884969	88.64146869312253	0	0	7.42258044966828	-7.422580449668283	1.358531386519052	34.11112708884969	88.64146869244172	0	0
0.24	12.66402327274854	9.733274580324817	27.54467887227972	0	0.9399999999999999	0	57.24112765172819	-3.648013044175728	-7.640734090153308	78.53836598853628	1.370753075636289	0	0	0	61.43180542359833	-2.363780682154664	-23.35796332776993	81.88732433216809	1.4292034252448	0	0	0	0	0	0	7.521570294000212	-7.521570294000215	1.375959968533975	34.42466130570828	88.62404011212244	0	0	7.521570294000212	-7.521570294000215	1.375959968533975	34.42466130570828	88.62404011144478	0	0
0.26	12.68490697199423	9.744794772142814	27.55379168244972	0	0.9399999999999999	0	57.16606083854367	-3.667212645581853	-7.655254088065964	78.35488928515143	1.367550803061518	0	0	0	61.3591955258705	-2.355643348786164	-23.3554831231702	81.68048756552605	1.425593442652717	0	0	0	0	0	0	7.734010776635146	-7.73401077663515	1.413174502894755	35.07449352207274	88.58682557992471	0	0	7.734010776635146	-7.73401077663515	1.413174502894755	35.07449352207274	88.58682557925425	0	0
0.28	12.67025186427556	9.752737777611891	27.56003137913535	0	0.9399999999999999	0	57.2226782832612	-3.684379011982509	-7.642323892979154	78.51999053574578	1.37043236348355	0	0	0	61.40934454678636	-2.322591661302883	-23.36328614693843	81.85002203212022	1.428552377290398	0	0	0	0	0	0	7.8144500702471	-7.814450070247103	1.427367379310103	35.33055203400246	88.57263270433589	0	0	7.8144500702471	-7.814450070247103	1.427367379310103	35.33055203400246	88.57263270366805	0	0
